<svg width="25" height="25" viewBox="0 0 25 25" fill="none" xmlns="http://www.w3.org/2000/svg">
<g opacity="0.8">
<path d="M15.4174 23.6997H9.41736C3.98736 23.6997 1.66736 21.3797 1.66736 15.9497V9.94971C1.66736 4.51971 3.98736 2.19971 9.41736 2.19971H15.4174C20.8474 2.19971 23.1674 4.51971 23.1674 9.94971V15.9497C23.1674 21.3797 20.8474 23.6997 15.4174 23.6997ZM9.41736 3.69971C4.80736 3.69971 3.16736 5.33971 3.16736 9.94971V15.9497C3.16736 20.5597 4.80736 22.1997 9.41736 22.1997H15.4174C20.0274 22.1997 21.6674 20.5597 21.6674 15.9497V9.94971C21.6674 5.33971 20.0274 3.69971 15.4174 3.69971H9.41736Z" fill="#6F7181"/>
<path d="M7.74733 16.1897C7.58733 16.1897 7.42733 16.1397 7.28733 16.0297C7.20919 15.97 7.14359 15.8954 7.09426 15.8103C7.04494 15.7252 7.01286 15.6312 6.99986 15.5337C6.98686 15.4362 6.99319 15.3371 7.01849 15.242C7.0438 15.147 7.08758 15.0578 7.14733 14.9797L9.52733 11.8897C9.81733 11.5197 10.2273 11.2797 10.6973 11.2197C11.1573 11.1597 11.6273 11.2897 11.9973 11.5797L13.8273 13.0197C13.8973 13.0797 13.9673 13.0797 14.0173 13.0697C14.0573 13.0697 14.1273 13.0497 14.1873 12.9697L16.4973 9.9897C16.5571 9.91131 16.6319 9.84565 16.7173 9.79656C16.8028 9.74747 16.8972 9.71594 16.995 9.70383C17.0928 9.69172 17.192 9.69927 17.2869 9.72604C17.3817 9.75281 17.4703 9.79825 17.5473 9.8597C17.8773 10.1097 17.9373 10.5797 17.6773 10.9097L15.3673 13.8897C15.0773 14.2597 14.6673 14.4997 14.1973 14.5497C13.7273 14.6097 13.2673 14.4797 12.8973 14.1897L11.0673 12.7497C11.0417 12.7272 11.0112 12.711 10.9782 12.7023C10.9452 12.6936 10.9107 12.6927 10.8773 12.6997C10.8373 12.6997 10.7673 12.7197 10.7073 12.7997L8.32733 15.8897C8.19733 16.0897 7.97733 16.1897 7.74733 16.1897Z" fill="#6F7181"/>
</g>
</svg>
