<svg width="25" height="25" viewBox="0 0 25 25" fill="none" xmlns="http://www.w3.org/2000/svg">
<g clip-path="url(#clip0_13_1240)">
<path opacity="0.8" d="M13.6912 22.8807C13.5212 22.8807 13.3512 22.8807 13.1812 22.8707C7.58121 22.6207 2.90121 18.1107 2.51121 12.6107C2.17121 7.89067 4.90121 3.48067 9.30121 1.63067C10.5512 1.11067 11.2112 1.51067 11.4912 1.80067C11.7712 2.08067 12.1612 2.73067 11.6412 3.92067C11.1816 4.97714 10.9499 6.11862 10.9612 7.27067C10.9812 11.7007 14.6612 15.4607 19.1512 15.6407C19.8012 15.6707 20.4412 15.6207 21.0612 15.5107C22.3812 15.2707 22.9312 15.8007 23.1412 16.1407C23.3512 16.4807 23.5912 17.2107 22.7912 18.2907C20.6712 21.1907 17.3012 22.8807 13.6912 22.8807ZM4.00121 12.5007C4.34121 17.2607 8.40121 21.1607 13.2412 21.3707C16.5312 21.5307 19.6512 20.0307 21.5712 17.4107C21.7212 17.2007 21.7912 17.0507 21.8212 16.9707C21.7312 16.9607 21.5712 16.9507 21.3212 17.0007C20.5912 17.1307 19.8312 17.1807 19.0812 17.1507C13.8012 16.9407 9.48121 12.5107 9.45121 7.29067C9.45121 5.91067 9.72121 4.58067 10.2712 3.33067C10.3712 3.11067 10.3912 2.96067 10.4012 2.88067C10.3112 2.88067 10.1512 2.90067 9.89121 3.01067C6.08121 4.61067 3.72121 8.43067 4.00121 12.5007Z" fill="#A1A2AF"/>
</g>
<defs>
<clipPath id="clip0_13_1240">
<rect width="24" height="24" fill="white" transform="translate(0.0943604 0.129639)"/>
</clipPath>
</defs>
</svg>
