<svg width="26" height="25" viewBox="0 0 26 25" fill="none" xmlns="http://www.w3.org/2000/svg">
<path opacity="0.4" d="M7.61565 10.0087L12.6452 7.88869C12.8667 7.79869 13.1197 7.79869 13.3306 7.88869L18.3708 10.0087C18.8136 10.1987 19.2248 9.68869 18.9191 9.32869L13.6469 3.21869C13.2884 2.79869 12.698 2.79869 12.3395 3.21869L7.06735 9.32869C6.76157 9.68869 7.17279 10.1987 7.61565 10.0087Z" fill="#55C960"/>
<path opacity="0.4" d="M7.61566 15.8087L12.6558 17.9287C12.8772 18.0187 13.1303 18.0187 13.3412 17.9287L18.3813 15.8087C18.8242 15.6187 19.2354 16.1287 18.9296 16.4887L13.6575 22.5987C13.299 23.0187 12.7085 23.0187 12.35 22.5987L7.07791 16.4887C6.76158 16.1287 7.16226 15.6187 7.61566 15.8087Z" fill="#55C960"/>
<path d="M12.7613 10.3987L8.40649 12.4587C8.01636 12.6387 8.01636 13.1687 8.40649 13.3487L12.7613 15.4087C12.9089 15.4787 13.0881 15.4787 13.2357 15.4087L17.5905 13.3487C17.9806 13.1687 17.9806 12.6387 17.5905 12.4587L13.2357 10.3987C13.162 10.3641 13.0808 10.3462 12.9985 10.3462C12.9162 10.3462 12.835 10.3641 12.7613 10.3987Z" fill="#55C960"/>
</svg>
