<svg width="25" height="25" viewBox="0 0 25 25" fill="none" xmlns="http://www.w3.org/2000/svg">
<path d="M12.7074 19.3798C8.7074 19.3798 5.4574 16.1298 5.4574 12.1298C5.4574 8.12976 8.7074 4.87976 12.7074 4.87976C16.7074 4.87976 19.9574 8.12976 19.9574 12.1298C19.9574 16.1298 16.7074 19.3798 12.7074 19.3798ZM12.7074 6.37976C9.5374 6.37976 6.9574 8.95976 6.9574 12.1298C6.9574 15.2998 9.5374 17.8798 12.7074 17.8798C15.8774 17.8798 18.4574 15.2998 18.4574 12.1298C18.4574 8.95976 15.8774 6.37976 12.7074 6.37976Z" fill="#FDB600"/>
<path d="M12.7074 23.0898C12.1574 23.0898 11.7074 22.6798 11.7074 22.1298V22.0498C11.7074 21.4998 12.1574 21.0498 12.7074 21.0498C13.2574 21.0498 13.7074 21.4998 13.7074 22.0498C13.7074 22.5998 13.2574 23.0898 12.7074 23.0898ZM19.8474 20.2698C19.5874 20.2698 19.3374 20.1698 19.1374 19.9798L19.0074 19.8498C18.9148 19.7572 18.8414 19.6473 18.7913 19.5263C18.7412 19.4053 18.7154 19.2757 18.7154 19.1448C18.7154 19.0138 18.7412 18.8842 18.7913 18.7632C18.8414 18.6423 18.9148 18.5323 19.0074 18.4398C19.1 18.3472 19.2099 18.2737 19.3309 18.2236C19.4518 18.1735 19.5815 18.1477 19.7124 18.1477C19.8433 18.1477 19.973 18.1735 20.0939 18.2236C20.2149 18.2737 20.3248 18.3472 20.4174 18.4398L20.5474 18.5698C20.6863 18.7088 20.781 18.8859 20.8195 19.0786C20.8581 19.2714 20.8387 19.4712 20.7638 19.653C20.689 19.8348 20.562 19.9903 20.399 20.1001C20.2359 20.2098 20.044 20.2689 19.8474 20.2698ZM5.5674 20.2698C5.3074 20.2698 5.0574 20.1698 4.8574 19.9798C4.76469 19.8872 4.69115 19.7774 4.64096 19.6564C4.59078 19.5354 4.56495 19.4057 4.56495 19.2748C4.56495 19.1438 4.59078 19.0141 4.64096 18.8931C4.69115 18.7722 4.76469 18.6623 4.8574 18.5698L4.9874 18.4398C5.07998 18.3472 5.18989 18.2737 5.31085 18.2236C5.43182 18.1735 5.56147 18.1477 5.6924 18.1477C5.82333 18.1477 5.95298 18.1735 6.07394 18.2236C6.1949 18.2737 6.30482 18.3472 6.3974 18.4398C6.48998 18.5323 6.56342 18.6423 6.61352 18.7632C6.66363 18.8842 6.68942 19.0138 6.68942 19.1448C6.68942 19.2757 6.66363 19.4053 6.61352 19.5263C6.56342 19.6473 6.48998 19.7572 6.3974 19.8498L6.2674 19.9798C6.0774 20.1698 5.8174 20.2698 5.5674 20.2698ZM22.7074 13.1298H22.6274C22.0774 13.1298 21.6274 12.6798 21.6274 12.1298C21.6274 11.5798 22.0774 11.1298 22.6274 11.1298C23.1774 11.1298 23.6674 11.5798 23.6674 12.1298C23.6674 12.6798 23.2574 13.1298 22.7074 13.1298ZM2.7874 13.1298H2.7074C2.1574 13.1298 1.7074 12.6798 1.7074 12.1298C1.7074 11.5798 2.1574 11.1298 2.7074 11.1298C3.2574 11.1298 3.7474 11.5798 3.7474 12.1298C3.7474 12.6798 3.3374 13.1298 2.7874 13.1298ZM19.7174 6.11976C19.4574 6.11976 19.2074 6.01976 19.0074 5.82976C18.9147 5.73725 18.8411 5.62736 18.791 5.50638C18.7408 5.38541 18.715 5.25573 18.715 5.12476C18.715 4.99379 18.7408 4.86411 18.791 4.74314C18.8411 4.62216 18.9147 4.51227 19.0074 4.41976L19.1374 4.28976C19.23 4.19718 19.3399 4.12374 19.4609 4.07363C19.5818 4.02353 19.7115 3.99774 19.8424 3.99774C19.9733 3.99774 20.103 4.02353 20.2239 4.07363C20.3449 4.12374 20.4548 4.19718 20.5474 4.28976C20.64 4.38234 20.7134 4.49225 20.7635 4.61322C20.8136 4.73418 20.8394 4.86383 20.8394 4.99476C20.8394 5.12569 20.8136 5.25534 20.7635 5.3763C20.7134 5.49727 20.64 5.60718 20.5474 5.69976L20.4174 5.82976C20.2274 6.01976 19.9774 6.11976 19.7174 6.11976ZM5.6974 6.11976C5.4374 6.11976 5.1874 6.01976 4.9874 5.82976L4.8574 5.68976C4.76482 5.59718 4.69138 5.48727 4.64127 5.3663C4.59117 5.24534 4.56538 5.11569 4.56538 4.98476C4.56538 4.85383 4.59117 4.72418 4.64127 4.60322C4.69138 4.48225 4.76482 4.37234 4.8574 4.27976C4.94998 4.18718 5.05989 4.11374 5.18085 4.06363C5.30182 4.01353 5.43147 3.98774 5.5624 3.98774C5.69333 3.98774 5.82298 4.01353 5.94394 4.06363C6.0649 4.11374 6.17482 4.18718 6.2674 4.27976L6.3974 4.40976C6.7874 4.79976 6.7874 5.42976 6.3974 5.81976C6.2074 6.01976 5.9474 6.11976 5.6974 6.11976ZM12.7074 3.16976C12.1574 3.16976 11.7074 2.75976 11.7074 2.20976V2.12976C11.7074 1.57976 12.1574 1.12976 12.7074 1.12976C13.2574 1.12976 13.7074 1.57976 13.7074 2.12976C13.7074 2.67976 13.2574 3.16976 12.7074 3.16976Z" fill="#FDB600"/>
</svg>
