<svg width="25" height="25" viewBox="0 0 25 25" fill="none" xmlns="http://www.w3.org/2000/svg">
<path d="M15.6573 22.3647H15.5273C11.0873 22.3647 8.94732 20.6147 8.57732 16.6947C8.53732 16.2847 8.83732 15.9147 9.25732 15.8747C9.65732 15.8347 10.0373 16.1447 10.0773 16.5547C10.3673 19.6947 11.8473 20.8647 15.5373 20.8647H15.6673C19.7373 20.8647 21.1773 19.4247 21.1773 15.3547V8.83471C21.1773 4.76471 19.7373 3.32471 15.6673 3.32471H15.5373C11.8273 3.32471 10.3473 4.51471 10.0773 7.71471C10.0273 8.12471 9.67732 8.43471 9.25732 8.39471C9.15877 8.38701 9.0627 8.35992 8.97463 8.31501C8.88657 8.2701 8.80823 8.20824 8.74413 8.13299C8.68002 8.05773 8.6314 7.97056 8.60106 7.87647C8.57072 7.78239 8.55926 7.68324 8.56732 7.58471C8.90732 3.60471 11.0573 1.82471 15.5273 1.82471H15.6573C20.5673 1.82471 22.6673 3.92471 22.6673 8.83471V15.3547C22.6673 20.2647 20.5673 22.3647 15.6573 22.3647Z" fill="#FB6B63"/>
<path d="M15.4174 12.8447H4.03735C3.62735 12.8447 3.28735 12.5047 3.28735 12.0947C3.28735 11.6847 3.62735 11.3447 4.03735 11.3447H15.4174C15.8274 11.3447 16.1674 11.6847 16.1674 12.0947C16.1674 12.5047 15.8274 12.8447 15.4174 12.8447Z" fill="#FB6B63"/>
<path d="M6.26738 16.1947C6.07738 16.1947 5.88738 16.1247 5.73738 15.9747L2.38738 12.6247C2.2479 12.4836 2.16968 12.2931 2.16968 12.0947C2.16968 11.8963 2.2479 11.7058 2.38738 11.5647L5.73738 8.21469C6.02738 7.92469 6.50738 7.92469 6.79738 8.21469C7.08738 8.50469 7.08738 8.98469 6.79738 9.27469L3.97738 12.0947L6.79738 14.9147C7.08738 15.2047 7.08738 15.6847 6.79738 15.9747C6.65738 16.1247 6.45738 16.1947 6.26738 16.1947Z" fill="#FB6B63"/>
</svg>
