<svg width="25" height="25" viewBox="0 0 25 25" fill="none" xmlns="http://www.w3.org/2000/svg">
<g opacity="0.8">
<path d="M15.1174 23.6997H9.71737C4.77737 23.6997 2.67737 21.5897 2.67737 16.6597V12.1697C2.67737 11.7597 3.01737 11.4197 3.42737 11.4197C3.83737 11.4197 4.17737 11.7597 4.17737 12.1697V16.6597C4.17737 20.7497 5.62737 22.1997 9.71737 22.1997H15.1074C19.1974 22.1997 20.6474 20.7497 20.6474 16.6597V12.1697C20.6474 11.7597 20.9874 11.4197 21.3974 11.4197C21.8074 11.4197 22.1474 11.7597 22.1474 12.1697V16.6597C22.1574 21.5897 20.0474 23.6997 15.1174 23.6997Z" fill="#6F7181"/>
<path d="M12.4164 13.6997C11.3164 13.6997 10.3164 13.2697 9.60638 12.4797C8.89638 11.6897 8.56638 10.6597 8.67638 9.55971L9.34638 2.87971C9.38638 2.49971 9.70638 2.19971 10.0964 2.19971H14.7664C15.1564 2.19971 15.4764 2.48971 15.5164 2.87971L16.1864 9.55971C16.2964 10.6597 15.9664 11.6897 15.2564 12.4797C14.5164 13.2697 13.5164 13.6997 12.4164 13.6997ZM10.7664 3.69971L10.1664 9.70971C10.0964 10.3797 10.2964 11.0097 10.7164 11.4697C11.5664 12.4097 13.2664 12.4097 14.1164 11.4697C14.5364 10.9997 14.7364 10.3697 14.6664 9.70971L14.0664 3.69971H10.7664Z" fill="#6F7181"/>
<path d="M18.7274 13.6997C16.6974 13.6997 14.8874 12.0597 14.6774 10.0397L13.9774 3.02971C13.9574 2.81971 14.0274 2.60971 14.1674 2.44971C14.3074 2.28971 14.5074 2.19971 14.7274 2.19971H17.7774C20.7174 2.19971 22.0874 3.42971 22.4974 6.44971L22.7774 9.22971C22.8974 10.4097 22.5374 11.5297 21.7674 12.3797C20.9974 13.2297 19.9174 13.6997 18.7274 13.6997ZM15.5574 3.69971L16.1774 9.88971C16.3074 11.1397 17.4674 12.1997 18.7274 12.1997C19.4874 12.1997 20.1674 11.9097 20.6574 11.3797C21.1374 10.8497 21.3574 10.1397 21.2874 9.37971L21.0074 6.62971C20.6974 4.36971 19.9674 3.69971 17.7774 3.69971H15.5574Z" fill="#6F7181"/>
<path d="M6.0564 13.6997C4.8664 13.6997 3.7864 13.2297 3.0164 12.3797C2.2464 11.5297 1.8864 10.4097 2.0064 9.22971L2.2764 6.47971C2.6964 3.42971 4.0664 2.19971 7.0064 2.19971H10.0564C10.2664 2.19971 10.4664 2.28971 10.6164 2.44971C10.7664 2.60971 10.8264 2.81971 10.8064 3.02971L10.1064 10.0397C9.8964 12.0597 8.0864 13.6997 6.0564 13.6997ZM7.0064 3.69971C4.8164 3.69971 4.0864 4.35971 3.7664 6.64971L3.4964 9.37971C3.4164 10.1397 3.6464 10.8497 4.1264 11.3797C4.6064 11.9097 5.2864 12.1997 6.0564 12.1997C7.3164 12.1997 8.4864 11.1397 8.6064 9.88971L9.2264 3.69971H7.0064Z" fill="#6F7181"/>
<path d="M14.9174 23.6997H9.91736C9.50736 23.6997 9.16736 23.3597 9.16736 22.9497V20.4497C9.16736 18.3497 10.3174 17.1997 12.4174 17.1997C14.5174 17.1997 15.6674 18.3497 15.6674 20.4497V22.9497C15.6674 23.3597 15.3274 23.6997 14.9174 23.6997ZM10.6674 22.1997H14.1674V20.4497C14.1674 19.1897 13.6774 18.6997 12.4174 18.6997C11.1574 18.6997 10.6674 19.1897 10.6674 20.4497V22.1997Z" fill="#6F7181"/>
</g>
</svg>
