<svg width="25" height="25" viewBox="0 0 25 25" fill="none" xmlns="http://www.w3.org/2000/svg">
<path fill-rule="evenodd" clip-rule="evenodd" d="M11.1652 20.2358C11.6832 20.8128 12.3482 21.1298 13.0382 21.1298H13.0392C13.7322 21.1298 14.4002 20.8128 14.9192 20.2348C15.0523 20.0869 15.2388 19.998 15.4375 19.9876C15.6362 19.9772 15.8308 20.0461 15.9787 20.1793C16.1266 20.3124 16.2155 20.4988 16.2259 20.6975C16.2363 20.8962 16.1673 21.0909 16.0342 21.2388C15.2262 22.1358 14.1642 22.6298 13.0392 22.6298H13.0372C11.9172 22.6288 10.8552 22.1348 10.0502 21.2378C9.98441 21.1645 9.93368 21.0791 9.90091 20.9863C9.86815 20.8935 9.85398 20.7951 9.85923 20.6968C9.86447 20.5985 9.88903 20.5022 9.93149 20.4134C9.97395 20.3246 10.0335 20.2451 10.1067 20.1793C10.1799 20.1135 10.2654 20.0627 10.3582 20.03C10.451 19.9972 10.5494 19.983 10.6477 19.9883C10.7459 19.9935 10.8422 20.0181 10.931 20.0606C11.0198 20.103 11.0994 20.1625 11.1652 20.2358ZM13.0882 1.12976C17.5332 1.12976 20.5192 4.59176 20.5192 7.82476C20.5192 9.48776 20.9422 10.1928 21.3912 10.9408C21.8352 11.6788 22.3382 12.5168 22.3382 14.1008C21.9892 18.1478 17.7642 18.4778 13.0882 18.4778C8.4122 18.4778 4.1862 18.1478 3.8412 14.1648C3.8382 12.5168 4.3412 11.6788 4.7852 10.9408L4.9422 10.6768C5.3282 10.0138 5.6572 9.29176 5.6572 7.82476C5.6572 4.59176 8.6432 1.12976 13.0882 1.12976ZM13.0882 2.62976C9.5932 2.62976 7.1582 5.36776 7.1582 7.82476C7.1582 9.90376 6.5802 10.8648 6.0702 11.7128C5.6612 12.3938 5.3382 12.9318 5.3382 14.1008C5.5052 15.9868 6.7502 16.9778 13.0882 16.9778C19.3912 16.9778 20.6752 15.9428 20.8412 14.0358C20.8382 12.9318 20.5152 12.3938 20.1062 11.7128C19.5962 10.8648 19.0192 9.90376 19.0192 7.82476C19.0192 5.36776 16.5832 2.62976 13.0892 2.62976H13.0882Z" fill="#1E1E2D"/>
</svg>
