<svg width="25" height="24" viewBox="0 0 25 24" fill="none" xmlns="http://www.w3.org/2000/svg">
<path d="M11.9037 21.75C6.25369 21.75 1.65369 17.15 1.65369 11.5C1.65369 5.85 6.25369 1.25 11.9037 1.25C17.5537 1.25 22.1537 5.85 22.1537 11.5C22.1537 17.15 17.5537 21.75 11.9037 21.75ZM11.9037 2.75C7.07369 2.75 3.15369 6.68 3.15369 11.5C3.15369 16.32 7.07369 20.25 11.9037 20.25C16.7337 20.25 20.6537 16.32 20.6537 11.5C20.6537 6.68 16.7337 2.75 11.9037 2.75Z" fill="#A1A2AF"/>
<path d="M22.4037 22.75C22.2137 22.75 22.0237 22.68 21.8737 22.53L19.8737 20.53C19.7342 20.3889 19.656 20.1984 19.656 20C19.656 19.8016 19.7342 19.6111 19.8737 19.47C20.1637 19.18 20.6437 19.18 20.9337 19.47L22.9337 21.47C23.2237 21.76 23.2237 22.24 22.9337 22.53C22.7837 22.68 22.5937 22.75 22.4037 22.75Z" fill="#A1A2AF"/>
</svg>
